PathFileType	4	(X/Y/Z)	paretic_post_fc0300a5.trc
DataRate	CameraRate	NumFrames	NumMarkers	Units	OrigDataRate	OrigDataStartFrame	OrigNumFrames
56.76	56.76	27	11	cm	56.76	55	433
Frame#	Time	NOSE			LEFT_SHOULDER			RIGHT_SHOULDER			LEFT_ELBOW			RIGHT_ELBOW			LEFT_WRIST			RIGHT_WRIST			LEFT_HIP			RIGHT_HIP			LEFT_INDEX			RIGHT_INDEX		
		X1	Y1	Z1	X2	Y2	Z2	X3	Y3	Z3	X4	Y4	Z4	X5	Y5	Z5	X6	Y6	Z6	X7	Y7	Z7	X8	Y8	Z8	X9	Y9	Z9	X10	Y10	Z10	X11	Y11	Z11
90	1.585584677419355	8.117624	-62.464382	-27.659833	11.732692	-49.716426	11.294579	-24.692475	-58.815709	0.651536	20.189551	-21.443069	11.754539	-39.498320	-20.939586	-12.354391	33.631482	-5.942737	4.119272	-33.956844	-11.044211	-33.107976	10.525337	-2.479427	10.885198	-10.130485	1.911904	-10.424628	34.491316	-4.452997	-0.635429	-22.647693	-19.130343	-44.078279
91	1.6032022849462366	8.084462	-62.490773	-25.713443	11.612957	-49.746924	12.849961	-24.797588	-58.917617	2.200711	20.116999	-21.454393	13.804307	-39.511559	-20.949895	-11.145265	33.636615	-5.982434	6.531637	-34.159443	-11.073623	-32.432355	10.525152	-2.473887	10.880684	-10.130208	1.906527	-10.419355	34.557357	-4.498853	1.772027	-22.988310	-19.167240	-43.465792
92	1.6208198924731183	7.930196	-62.527700	-27.161564	11.553983	-49.765764	11.427678	-24.917677	-58.926167	1.101647	19.987405	-21.496113	12.179295	-39.680075	-20.948954	-11.782849	33.400281	-6.124252	4.522678	-34.173173	-11.072752	-32.633846	10.524970	-2.481034	10.879171	-10.130127	1.915160	-10.417385	34.277590	-4.671484	-0.253803	-22.986317	-19.168359	-43.577092
93	1.6384375	7.896956	-62.543623	-25.986647	11.534913	-49.664883	11.873402	-25.073991	-58.814305	1.833718	19.888261	-21.193882	12.132160	-39.778496	-20.935991	-11.586387	33.179419	-5.965006	3.413793	-34.215421	-10.965263	-32.647005	10.544496	-2.489761	10.847592	-10.152905	1.921398	-10.380241	34.012571	-4.547243	-1.662955	-22.996821	-18.939903	-43.648446
94	1.6560551075268817	7.914754	-62.703330	-25.767830	11.612591	-49.699593	12.117840	-25.065346	-58.947476	2.036407	20.195131	-21.214796	12.207280	-39.621617	-20.972526	-11.564421	33.783972	-5.992041	3.530325	-34.024079	-10.996428	-32.729960	10.547967	-2.488318	10.847539	-10.156824	1.919688	-10.380058	34.657627	-4.560930	-1.535289	-22.814519	-18.995742	-43.761677
95	1.6736727150537636	7.902579	-62.579579	-26.661359	11.647287	-49.602261	11.340152	-25.050870	-58.897499	1.469217	20.245923	-21.201238	11.174507	-39.642181	-20.970754	-11.968780	33.762593	-5.887115	2.286404	-33.995892	-10.835887	-32.939919	10.537895	-2.492605	10.847121	-10.147150	1.924045	-10.379421	34.529696	-4.355043	-2.807184	-22.662769	-18.650364	-43.929460
96	1.6912903225806453	7.998245	-62.612306	-27.295637	11.956283	-49.668468	10.912020	-24.838147	-59.041801	1.055377	20.533304	-21.214130	10.451597	-39.487471	-20.994215	-12.134945	33.975891	-6.016917	1.018652	-33.705938	-10.851876	-33.223336	10.539086	-2.482554	10.852037	-10.147938	1.914880	-10.385198	34.656959	-4.636182	-4.117944	-22.352415	-18.683465	-44.203454
97	1.708907930107527	7.931034	-62.611133	-28.303539	12.001567	-49.652125	10.088664	-24.797663	-59.040838	0.456042	20.409244	-21.191895	9.518452	-39.581182	-21.022740	-12.285710	33.584293	-6.067597	-0.209000	-33.668871	-10.857978	-33.260592	10.538769	-2.481757	10.858409	-10.147560	1.914690	-10.391650	34.200862	-4.812392	-5.351204	-22.124575	-18.689519	-44.219805
98	1.7265255376344086	7.842348	-62.658759	-27.568437	11.974698	-49.681020	10.373262	-24.893672	-59.070656	1.067859	20.372594	-21.197396	9.790918	-39.639280	-21.029959	-11.626528	33.547600	-6.072473	0.094244	-33.773452	-10.858230	-32.706487	10.547950	-2.485428	10.836576	-10.156385	1.919100	-10.368389	34.177215	-4.815471	-5.043135	-22.251615	-18.696486	-43.676933
99	1.7441431451612903	7.808855	-62.660932	-27.124017	12.016063	-49.533456	10.824077	-24.902436	-59.048482	1.529152	20.353798	-20.986084	9.855522	-39.637730	-21.024777	-11.491772	33.338037	-6.069604	0.144880	-33.677390	-10.868463	-32.737065	10.555801	-2.483873	10.832354	-10.166838	1.915933	-10.364017	33.894769	-4.817213	-5.062760	-22.075452	-18.736234	-43.818257
100	1.761760752688172	7.798028	-62.653171	-26.419275	12.005484	-49.463802	11.353177	-24.971271	-59.009106	2.094029	20.359305	-20.917014	10.556798	-39.691834	-20.981699	-11.208583	33.339326	-5.965665	1.147110	-33.685691	-10.858808	-32.725940	10.565580	-2.483623	10.819368	-10.177693	1.915413	-10.350176	33.898831	-4.701043	-4.007377	-22.080121	-18.742051	-43.822348
101	1.779378360215054	7.843344	-62.664760	-27.469428	12.053359	-49.515252	10.782571	-24.920467	-59.054317	1.050290	20.372296	-20.965340	10.107555	-39.667787	-20.978573	-12.042817	33.339917	-6.079550	0.741337	-33.411783	-10.820595	-33.415040	10.564745	-2.482067	10.831530	-10.176856	1.913920	-10.363238	33.890995	-4.866584	-4.339572	-21.680099	-18.725362	-44.420749
102	1.7969959677419356	7.819132	-62.601102	-27.409685	12.090207	-49.381984	10.986645	-24.899537	-58.981425	1.259736	20.380421	-20.894750	10.202367	-39.662599	-20.934274	-11.838063	33.290185	-5.917349	0.808403	-33.396354	-10.755507	-33.180756	10.563268	-2.481207	10.838266	-10.175593	1.913048	-10.369898	33.788219	-4.652451	-4.252018	-21.659867	-18.666608	-44.231637
103	1.8146135752688173	7.960188	-62.578033	-28.473390	12.305629	-49.385650	10.226327	-24.447652	-58.980696	0.241371	20.668773	-20.903485	9.698183	-39.448933	-20.847262	-11.993988	33.578693	-5.943061	0.308943	-32.911177	-10.220135	-32.986893	10.553232	-2.468740	10.857028	-10.163478	1.902754	-10.392655	34.013567	-4.738413	-4.683114	-21.025123	-17.994534	-43.852470
104	1.832231182795699	7.957471	-62.576099	-30.419252	12.304827	-49.519120	9.002711	-24.370944	-59.012813	-1.471434	20.666558	-21.105124	9.242590	-39.459207	-20.884404	-13.116921	33.703235	-6.068305	0.255443	-32.827692	-10.228269	-33.282128	10.526514	-2.466920	10.913418	-10.135631	1.901930	-10.455217	34.231234	-4.873221	-4.687860	-20.801823	-18.012929	-44.034072
105	1.8498487903225806	7.572260	-62.546617	-30.943491	12.114545	-49.653610	8.484445	-24.492530	-59.017017	-1.811167	20.197640	-21.370606	8.824384	-39.751292	-21.035318	-13.309882	33.132885	-6.151970	-0.129627	-32.906777	-10.213236	-33.281517	10.525308	-2.467664	10.913385	-10.134240	1.903436	-10.455156	33.620540	-4.896631	-5.064922	-20.815953	-17.829184	-44.029669
106	1.8674663978494623	7.532943	-62.663611	-28.828182	12.112559	-49.651732	10.216125	-24.592456	-59.054879	-0.259821	20.201095	-21.369423	10.639605	-39.752121	-21.077156	-11.908308	33.208972	-6.145639	2.351892	-32.753520	-10.114795	-31.640713	10.538605	-2.464944	10.911772	-10.147564	1.900924	-10.452976	33.698773	-4.827337	-2.452401	-20.558602	-17.580730	-42.270536
107	1.8850840053763442	7.486825	-62.748435	-28.782401	12.117704	-49.637218	10.227835	-24.642540	-59.050205	-0.241419	20.210281	-21.361599	10.500564	-39.805967	-21.078592	-11.815448	33.213510	-6.128533	1.745013	-32.731975	-9.978002	-31.439397	10.543307	-2.466167	10.912542	-10.152117	1.902464	-10.453440	33.701699	-4.770444	-3.165160	-20.487964	-17.347807	-42.048268
108	1.902701612903226	7.399861	-62.787187	-28.718422	12.106093	-49.679944	10.295688	-24.702595	-59.119856	-0.121343	20.131394	-21.374276	10.624564	-39.804296	-21.085289	-11.707087	33.217289	-6.203957	2.009177	-32.539496	-9.866365	-31.411709	10.553128	-2.466648	10.908215	-10.162992	1.903387	-10.448597	33.752439	-4.828847	-2.872761	-20.172475	-17.183238	-42.059950
109	1.9203192204301076	7.240831	-62.726645	-30.656800	12.001627	-49.659829	8.963258	-24.809349	-59.085437	-1.398351	19.901715	-21.328520	9.503653	-39.951738	-21.084134	-12.465506	33.212911	-6.177356	0.851966	-32.494925	-9.711391	-31.608933	10.552133	-2.469674	10.917271	-10.162611	1.907371	-10.457500	33.772365	-4.823718	-4.071426	-20.044682	-17.040148	-42.221482
110	1.9379368279569893	7.222671	-62.788802	-30.504474	11.954508	-49.843131	9.284822	-24.882941	-59.253848	-1.335921	19.930547	-21.703606	10.859635	-39.965334	-21.284659	-12.424948	33.714453	-6.350028	3.954246	-32.387635	-9.703918	-31.648357	10.554091	-2.468716	10.917309	-10.165737	1.906093	-10.457533	34.536373	-4.874562	-0.710850	-19.852980	-16.981504	-42.282465
111	1.955554435483871	7.028295	-62.758466	-28.039162	11.952260	-49.595014	10.852453	-25.030440	-59.100401	0.709394	19.949021	-21.412236	11.415808	-40.126368	-21.261066	-10.573171	33.712752	-6.045948	3.925853	-32.399345	-9.425933	-29.164784	10.568171	-2.468183	10.911612	-10.179267	1.905647	-10.452698	34.509420	-4.442760	-0.809587	-19.865518	-16.469819	-39.672355
112	1.9731720430107527	6.945868	-62.874703	-28.511572	11.941564	-49.724466	10.519570	-25.035421	-59.274238	0.471958	19.892157	-21.530469	11.302653	-40.125960	-21.297102	-10.627600	33.693066	-6.091899	3.795324	-32.128708	-9.362598	-29.234837	10.569308	-2.463724	10.911149	-10.179994	1.902849	-10.451945	34.500404	-4.456947	-0.955718	-19.435514	-16.403909	-39.588218
113	1.9907896505376346	6.945962	-62.936774	-28.425366	12.031357	-49.688514	10.644564	-24.993071	-59.234757	0.549271	19.873493	-21.435484	11.287647	-40.099452	-21.261530	-10.356693	33.464421	-6.022735	3.648648	-31.904914	-9.122409	-28.514573	10.573352	-2.462656	10.915347	-10.183895	1.901901	-10.456892	34.212888	-4.388310	-1.075299	-19.099430	-16.108404	-38.794992
114	2.008407258064516	6.958564	-62.936487	-28.357107	12.088795	-49.698687	10.830065	-24.926152	-59.286580	0.606777	19.896355	-21.453003	11.342174	-39.955145	-21.349081	-10.405069	33.506997	-6.053359	3.588317	-31.489224	-9.136874	-28.783387	10.579078	-2.438695	10.915769	-10.190366	1.876851	-10.457875	34.268542	-4.407172	-1.155365	-18.580996	-16.115894	-39.119164
115	2.0260248655913977	6.963559	-62.878041	-29.553223	12.091240	-49.696465	9.540937	-24.776164	-59.210600	-0.649226	19.846565	-21.448572	9.900061	-39.901664	-21.297468	-11.380878	33.409829	-6.054068	1.739945	-31.157515	-9.099392	-28.979560	10.562352	-2.438397	10.935666	-10.173061	1.876927	-10.480625	34.182249	-4.422902	-2.972659	-18.117132	-16.118671	-39.209848
116	2.04364247311828	6.994342	-62.867298	-29.542885	12.088483	-49.744642	9.569962	-24.758991	-59.195232	-0.862816	19.724529	-21.442395	9.755107	-39.850886	-21.271917	-11.950253	33.410440	-6.065146	0.873953	-30.874508	-9.045390	-29.784644	10.563032	-2.438142	10.946787	-10.174074	1.876702	-10.491781	34.233318	-4.456058	-4.011692	-17.717069	-16.030778	-40.042644
